<?xml version="1.0" standalone="no"?>
<!DOCTYPE svg PUBLIC "-//W3C//DTD SVG 20010904//EN"
 "http://www.w3.org/TR/2001/REC-SVG-20010904/DTD/svg10.dtd">
<svg version="1.0" xmlns="http://www.w3.org/2000/svg"
 width="292.000000pt" height="347.000000pt" viewBox="0 0 292.000000 347.000000"
 preserveAspectRatio="xMidYMid meet">

<g transform="translate(0.000000,347.000000) scale(0.100000,-0.100000)"
fill="#000000" stroke="none">
<path d="M1372 2964 c-45 -43 -132 -161 -132 -180 0 -7 -4 -14 -8 -16 -9 -3
-29 -40 -92 -164 -33 -64 -49 -84 -78 -99 -20 -10 -51 -29 -69 -42 -17 -13
-36 -23 -42 -23 -6 0 -11 -4 -11 -10 0 -5 -7 -10 -15 -10 -8 0 -15 -4 -15 -10
0 -5 -5 -10 -11 -10 -9 0 -64 -37 -95 -65 -7 -5 -35 -30 -64 -55 -83 -72 -155
-143 -177 -175 -22 -33 -53 -147 -53 -192 1 -64 27 -127 63 -157 20 -16 42
-26 49 -23 7 2 26 30 42 61 31 60 108 143 169 184 20 13 37 28 37 32 0 4 11
12 25 18 29 13 30 9 14 -53 -23 -90 -29 -113 -44 -180 -28 -129 -48 -230 -52
-272 -4 -35 -12 -48 -42 -71 -86 -66 -231 -142 -272 -142 -24 0 -26 -41 -4
-64 8 -8 15 -19 15 -25 0 -6 4 -11 8 -11 5 0 24 -14 43 -31 45 -41 105 -69
152 -69 44 0 43 3 26 -149 -10 -87 -9 -111 6 -186 16 -76 23 -91 58 -126 22
-21 51 -42 66 -46 14 -3 35 -12 46 -19 11 -6 39 -15 62 -19 l41 -6 -5 98 c-4
92 14 346 39 546 l11 88 46 31 c25 17 53 38 61 45 8 8 38 31 66 51 50 37 117
91 177 145 17 15 35 27 39 27 11 0 10 -36 -2 -144 -10 -85 -14 -117 -41 -301
-10 -69 -18 -101 -45 -162 -8 -17 -14 -36 -14 -42 0 -6 -4 -11 -8 -11 -4 0
-14 -15 -22 -33 -7 -17 -15 -35 -18 -39 -2 -5 16 -16 40 -27 38 -16 53 -17
104 -9 32 6 66 17 75 24 8 8 20 14 24 14 5 0 30 22 55 48 35 37 49 62 63 112
9 36 21 79 26 95 5 17 16 75 25 130 9 55 21 122 27 150 5 27 13 151 16 274 7
248 1 226 79 305 11 12 25 29 30 38 5 8 24 33 42 54 125 149 310 462 341 579
18 68 14 94 -22 129 -86 82 -115 96 -199 96 -95 0 -302 -40 -324 -63 -18 -17
-45 -6 -50 21 -15 73 -110 153 -200 168 -38 6 -44 3 -82 -32z m522 -406 c-4
-7 -37 -58 -73 -113 l-66 -100 -6 50 c-4 28 -9 64 -13 80 -7 29 -4 31 46 54
29 13 67 27 83 32 17 4 31 7 33 8 2 1 0 -5 -4 -11z m-420 -224 c3 -26 6 -106
6 -179 l0 -132 -88 -84 c-49 -46 -102 -95 -118 -109 -78 -67 -124 -102 -124
-94 1 29 88 345 110 399 4 11 21 54 37 95 27 72 30 76 93 112 36 21 68 38 71
38 3 0 9 -21 13 -46z"/>
</g>
</svg>
